name pl02_filtered_grf.mot
datacolumns 37
datarows 6
range 1.634000 1.636500
endheader
time	1_ground_force_vx	1_ground_force_vy	1_ground_force_vz	1_ground_force_px	1_ground_force_py	1_ground_force_pz	1_ground_torque_x	1_ground_torque_y	1_ground_torque_z	2_ground_force_vx	2_ground_force_vy	2_ground_force_vz	2_ground_force_px	2_ground_force_py	2_ground_force_pz	2_ground_torque_x	2_ground_torque_y	2_ground_torque_z	3_ground_force_vx	3_ground_force_vy	3_ground_force_vz	3_ground_force_px	3_ground_force_py	3_ground_force_pz	3_ground_torque_x	3_ground_torque_y	3_ground_torque_z	4_ground_force_vx	4_ground_force_vy	4_ground_force_vz	4_ground_force_px	4_ground_force_py	4_ground_force_pz	4_ground_torque_x	4_ground_torque_y	4_ground_torque_z
            1.634000	          -38.981738	          219.590260	           23.854308	            0.124922	            0.000000	            0.179924	           -1.058288	            5.961502	            0.647604	           37.451824	          227.759742	           14.146809	           -0.199474	            0.000000	            0.218769	            1.280473	            7.787077	            0.483678	           -0.185421	           -0.220000	           -0.057586	            0.413399	            1.262678	            1.872281	            0.013169	            0.017357	            0.031160	           -1.821856	           -1.572283	           -1.876244	           -0.353505	            1.256658	            1.899799	            0.032407	           -0.037597	            0.048542
            1.634500	          -39.015350	          219.538192	           23.903680	            0.124916	            0.000000	            0.179915	           -1.058606	            5.956745	            0.648580	           37.475881	          227.535633	           14.153647	           -0.199480	            0.000000	            0.218747	            1.283495	            7.792765	            0.484742	           -0.181559	           -0.215512	           -0.066128	            0.413397	            1.262679	            1.872292	            0.013175	            0.017400	            0.031079	           -1.817372	           -1.576962	           -1.887369	           -0.353509	            1.256660	            1.899810	            0.032496	           -0.037490	            0.048521
            1.635000	          -39.048262	          219.496973	           23.949322	            0.124912	            0.000000	            0.179908	           -1.058919	            5.952363	            0.649463	           37.502484	          227.318222	           14.162310	           -0.199486	            0.000000	            0.218727	            1.286660	            7.798983	            0.485890	           -0.176838	           -0.211677	           -0.074308	            0.413394	            1.262679	            1.872303	            0.013169	            0.017433	            0.030994	           -1.811898	           -1.581710	           -1.898664	           -0.353513	            1.256662	            1.899821	            0.032577	           -0.037369	            0.048507
            1.635500	          -39.080438	          219.466516	           23.991204	            0.124908	            0.000000	            0.179906	           -1.059226	            5.948362	            0.650251	           37.531574	          227.107439	           14.172769	           -0.199495	            0.000000	            0.218709	            1.289966	            7.805717	            0.487120	           -0.171250	           -0.208505	           -0.082128	            0.413390	            1.262679	            1.872315	            0.013151	            0.017456	            0.030904	           -1.805451	           -1.586489	           -1.910110	           -0.353517	            1.256665	            1.899833	            0.032648	           -0.037231	            0.048499
            1.636000	          -39.111844	          219.446733	           24.029300	            0.124906	            0.000000	            0.179907	           -1.059528	            5.944746	            0.650947	           37.563084	          226.903211	           14.184979	           -0.199504	            0.000000	            0.218694	            1.293409	            7.812952	            0.488431	           -0.164795	           -0.206003	           -0.089590	            0.413386	            1.262679	            1.872328	            0.013122	            0.017468	            0.030809	           -1.798061	           -1.591281	           -1.921666	           -0.353522	            1.256668	            1.899845	            0.032710	           -0.037076	            0.048498
            1.636500	          -39.142444	          219.437528	           24.063590	            0.124904	            0.000000	            0.179911	           -1.059826	            5.941520	            0.651549	           37.596944	          226.705463	           14.198888	           -0.199515	            0.000000	            0.218680	            1.296984	            7.820672	            0.489820	           -0.157473	           -0.204175	           -0.096700	            0.413382	            1.262679	            1.872340	            0.013081	            0.017467	            0.030711	           -1.789758	           -1.596061	           -1.933301	           -0.353527	            1.256670	            1.899857	            0.032762	           -0.036903	            0.048503
